# xmcd
#
# Track frame offsets:
#	182
#	10140
#	31085
#	75015
#	89207
#	101002
#	114907
#	131745
#	183020
#	207570
#
# Disc length: 3241 seconds
#
# Revision: 1
# Processed by: cddbd v1.5.1PL2 Copyright (c) Steve Scherf et al.
# Submitted via: EasyCDDAExtractor 6.0.0.1
#
DISCID=740ca70a
DTITLE=Various Artist - Joyas de la música - Vol 46
DYEAR=1900
DGENRE=
TTITLE0=Leoncavallo - Mattinata
TTITLE1=Cui - Tarantela
TTITLE2=Janacek - Profecía y muerte de Taras Bulba
TTITLE3=Severac - Tantum ergo
TTITLE4=Mascagni - Cavalleria rusticana
TTITLE5=Ravel - Valses nobles y sentimentales
TTITLE6=Faure - Sicilienne, de Pelléas et Melinsande
TTITLE7=Berg - Concierto para violín y orquesta
TTITLE8=Elgar - Pompa y circunstancia
TTITLE9=Holst - Los planetas, Júpiter
EXTD=
EXTT0=
EXTT1=
EXTT2=
EXTT3=
EXTT4=
EXTT5=
EXTT6=
EXTT7=
EXTT8=
EXTT9=
PLAYORDER=
